HIERARCHY
ROOT root     
{
	OFFSET 0.0000 0.0000 0.0000
	CHANNELS 6 Xposition Yposition Zposition Zrotation Yrotation Xrotation
	JOINT pelvis   
	{
		OFFSET 0.0000 0.0000 0.0000
		CHANNELS 3 Zrotation Yrotation Xrotation
		JOINT thorax   
		{
			OFFSET 0.0000 23.0750 -5.0000
			CHANNELS 3 Zrotation Yrotation Xrotation
			JOINT rclavicle
			{
				OFFSET 0.0000 28.0009 0.0000
				CHANNELS 3 Zrotation Yrotation Xrotation
				JOINT rhumerus 
				{
					OFFSET -18.5725 5.5939 0.0000
					CHANNELS 3 Zrotation Yrotation Xrotation
					JOINT rradius  
					{
						OFFSET -24.8459 0.0000 0.0000
						CHANNELS 3 Zrotation Yrotation Xrotation
						JOINT rhand    
						{
							OFFSET -24.5477 0.0000 0.0000
							CHANNELS 3 Zrotation Yrotation Xrotation
							End Site
							{
								OFFSET -8.1826 0.0000 0.0000
							}
						}
					}
				}
			}
			JOINT lclavicle
			{
				OFFSET 0.0000 28.0009 0.0000
				CHANNELS 3 Zrotation Yrotation Xrotation
				JOINT lhumerus 
				{
					OFFSET 18.5725 5.5939 0.0000
					CHANNELS 3 Zrotation Yrotation Xrotation
					JOINT lradius  
					{
						OFFSET 24.8459 0.0000 0.0000
						CHANNELS 3 Zrotation Yrotation Xrotation
						JOINT lhand    
						{
							OFFSET 24.5477 0.0000 0.0000
							CHANNELS 3 Zrotation Yrotation Xrotation
							End Site
							{
								OFFSET 8.1826 0.0000 0.0000
							}
						}
					}
				}
			}
			JOINT head     
			{
				OFFSET 0.0000 35.2030 0.0000
				CHANNELS 3 Zrotation Yrotation Xrotation
				End Site
				{
					OFFSET 0.0000 11.7343 0.0000
				}
			}
		}
		JOINT rfemur   
		{
			OFFSET -8.2817 0.0000 0.0000
			CHANNELS 3 Zrotation Yrotation Xrotation
			JOINT rtibia   
			{
				OFFSET 0.0000 -43.3627 0.0000
				CHANNELS 3 Zrotation Yrotation Xrotation
				JOINT rfoot    
				{
					OFFSET 0.0000 -38.2947 0.0000
					CHANNELS 3 Zrotation Yrotation Xrotation
					JOINT rtoes    
					{
						OFFSET 0.0000 0.0000 16.6054
						CHANNELS 3 Zrotation Yrotation Xrotation
						End Site
						{
							OFFSET 0.0000 0.0000 5.5351
						}
					}
				}
			}
		}
		JOINT lfemur   
		{
			OFFSET 8.2817 0.0000 0.0000
			CHANNELS 3 Zrotation Yrotation Xrotation
			JOINT ltibia   
			{
				OFFSET 0.0000 -43.3627 0.0000
				CHANNELS 3 Zrotation Yrotation Xrotation
				JOINT lfoot    
				{
					OFFSET 0.0000 -38.2947 0.0000
					CHANNELS 3 Zrotation Yrotation Xrotation
					JOINT ltoes    
					{
						OFFSET 0.0000 0.0000 16.6054
						CHANNELS 3 Zrotation Yrotation Xrotation
						End Site
						{
							OFFSET 0.0000 0.0000 5.5351
						}
					}
				}
			}
		}
	}
}
MOTION
Frames: 7
Frame Time: .0333333
-67.054 75 -2.495 -26.9591 86.2833 -7.67459 0 -0 0 -0.200728 -9.39762 19.1081 25.3331 -13.5157 1.56916e-05 54.8451 -20.21 5.38152 -0 78.0231 -0 -11.24 4.19755 -0.413201 -16.72 15.34 -0.000127669 -39.1713 6.62878 -6.43335 180 -78.8054 180 -0.403 3.82244 -0.0134001 4.05665 4.42095 -14.1901 14.6922 -12.3288 -63.4638 -0 -0 50.2567 -2.6344e-07 0.532802 2.42173 0.0224997 -5.32278e-08 -17.2466 1.10275 16.1111 -11.5353 -0 -0 56.3421 -1.82614e-06 6.22306 -8.40291 -0.9129 -1.10237e-06 -73.8857 
-65.718 74.843 -2.4402 -25.8671 86.4079 -6.74335 0 -0 0 0.317139 -9.37527 19.1247 25.2476 -13.3822 5.26166e-05 54.7509 -19.9806 5.23019 -0 77.8884 -0 -11.2551 4.20779 -0.414789 -16.8096 15.3816 -0.00010101 -39.8081 7.28559 -6.14893 180 -79.2832 -180 -0.574099 3.80292 -0.0191 3.73296 4.22785 -14.4862 13.9114 -12.0208 -63.2869 -0 -0 52.1662 -4.08401e-10 0.00169999 1.46955 0 -0 -11.2009 1.28749 15.3998 -10.7734 -0 -0 56.6937 1.37581e-06 6.01444 -6.74743 -0.709203 -1.88171e-06 -74.8318 
-64.411 74.71 -2.3724 -25.9119 86.5451 -6.92958 0 -0 0 0.899153 -9.35519 19.1778 25.204 -13.2002 5.0353e-06 54.6308 -19.6584 5.04208 -0 77.7437 -0 -11.3103 4.1827 -0.414393 -16.9078 15.3871 7.33389e-05 -40.5046 7.93292 -5.85199 -180 -79.8318 180 -0.715608 3.79485 -0.0237001 3.43623 4.03691 -14.8181 13.2334 -11.7149 -63.0574 -0 -0 53.9582 -5.66228e-08 -0.629402 0.398601 -0.00440004 2.12522e-09 -7.16868 1.50387 14.6282 -10.1873 -0 -0 57.2172 -9.77763e-06 5.83251 -5.0027 -0.510297 -6.62351e-06 -75.1045 
-63.142 74.606 -2.2927 -27.2223 86.6989 -8.34036 0 -0 0 1.5405 -9.3448 19.2467 25.1971 -12.9754 -2.31957e-05 54.4896 -19.2431 4.81914 -0 77.5826 -0 -11.4 4.12396 -0.411791 -17.016 15.3518 9.82823e-05 -41.2569 8.57137 -5.54172 -180 -80.4435 180 -0.820585 3.79864 -0.0271995 3.17864 3.8453 -15.164 12.6694 -11.4243 -62.7836 -0 -0 55.5877 1.9269e-07 -1.34365 -0.759993 0.0178004 1.60275e-08 -4.95678 1.74191 13.7925 -9.80375 -0 -0 57.9124 7.89201e-06 5.70566 -3.23698 -0.3232 3.56804e-06 -74.5244 
-61.906 74.529 -2.2035 -29.9403 86.8792 -11.1371 0 -0 0 2.23156 -9.33194 19.3416 25.227 -12.721 8.33691e-05 54.3279 -18.7396 4.55323 -0 77.4111 -0 -11.5229 4.03109 -0.406888 -17.1106 15.3012 -2.2531e-05 -42.08 9.14659 -5.1899 -180 -81.1442 180 -0.890014 3.81888 -0.0297006 2.96828 3.63644 -15.5125 12.2271 -11.1801 -62.447 -0 -0 57.0423 -8.74691e-08 -2.10354 -2.00097 0.0735009 4.08599e-08 -4.06211 2.00151 12.9102 -9.602 -0 -0 58.7656 -1.7513e-06 5.64264 -1.52802 -0.150899 9.259e-07 -72.8604 
-60.711 74.482 -2.1088 -34.0893 87.0894 -15.3178 0 -0 0 2.95141 -9.32783 19.4269 25.283 -12.4435 -3.20151e-05 54.1617 -18.154 4.24964 -1.50781e-06 77.2163 -1.20405e-06 -11.6692 3.91344 -0.400011 -17.1976 15.2141 5.10137e-05 -42.9538 9.69614 -4.80808 -180 -81.9288 180 -0.922404 3.85121 -0.0310004 2.81916 3.41264 -15.8387 11.8927 -10.9906 -62.072 -0 -0 58.2924 -6.2527e-07 -2.89148 -3.25609 0.164399 -8.79456e-08 -4.37023 2.2587 11.983 -9.6171 -0 -0 59.772 -1.81558e-08 5.68769 0.0276 0.00280006 1.24905e-10 -70.08 
-59.555 74.462 -2.0118 -39.9233 87.2997 -21.1334 0 -0 0 3.68218 -9.32334 19.4971 25.3596 -12.156 -5.85706e-05 53.9985 -17.4979 3.90771 -1.18281e-06 77.0132 -1.48662e-06 -11.8307 3.77611 -0.391391 -17.2622 15.1019 4.19812e-05 -43.8768 10.2024 -4.38207 180 -82.7855 180 -0.923694 3.89582 -0.0314 2.738 3.16498 -16.1281 11.6542 -10.874 -61.6607 -0 -0 59.338 1.91259e-06 -3.67448 -4.47759 0.287298 -1.58136e-08 -5.62236 2.5068 11.0335 -9.83815 -0 -0 60.9163 -1.09956e-06 5.85798 1.34379 0.137903 2.7238e-06 -66.1746 
